<?xml version="1.0" encoding="UTF-8"?>
<svg id="svg4" xmlns="http://www.w3.org/2000/svg" xmlns:xlink="http://www.w3.org/1999/xlink" viewBox="0 0 256 256">
  <defs>
    <style>
      .cls-1 {
        fill: none;
      }

      .cls-2 {
        clip-path: url(#clippath);
      }

      .cls-3 {
        fill: #03b042;
      }

      .cls-4 {
        fill: #02a1e2;
      }

      .cls-5 {
        fill: #fff;
      }

      .cls-6 {
        fill: #ffd833;
      }

      .cls-7 {
        fill: #feb300;
      }

      .cls-8 {
        fill: #d8291c;
      }

      .cls-9 {
        clip-path: url(#clippath-1);
      }
    </style>
    <clipPath id="clippath">
      <path id="path2" class="cls-1" d="m387.6,278.84c-37.45.06-72.79,17.35-95.81,46.89,14.84,3.97,25.35,7.37,28.5,8.43.05-1.93.37-19.2.37-19.2,0,0,.04-.4.25-.6.27-.27.66-.19.66-.19,3.9.57,87.24,12.92,122.37,33.39,4.34,2.54,6.48,5.24,9.15,7.97,9.71,10.04,22.54,51.8,23.92,60.41.05.34-.36.71-.54.85h0c-1,.78-2.08,1.59-3.17,2.31-8.31,5.58-27.46,18.98-52.03,16.79-22.07-1.95-50.9-14.61-85.66-37.51,3.42,8,6.78,16.03,10.15,24.05,5.03,2.61,53.62,27.37,77.59,26.89,19.31-.4,39.97-9.82,48.23-14.8,0,0,1.82-1.09,2.61-.48.86.67.63,1.69.42,2.74-.51,2.37-1.67,6.7-2.45,8.75l-.66,1.67c-.95,2.53-1.85,4.89-3.6,6.34-4.87,4.43-12.64,7.95-24.81,13.24-18.82,8.23-49.35,13.47-77.69,13.29-10.15-.23-19.96-1.35-28.57-2.36-17.68-2-32.06-3.61-40.83,2.73,23.07,26.51,56.47,41.75,91.61,41.81,67.22,0,121.71-54.49,121.71-121.71h0c0-67.22-54.49-121.71-121.71-121.71h0,0Zm27.15,70.62c-9.53-.3-18.61,3.06-25.57,9.56-6.96,6.48-10.94,15.32-11.3,24.84-.66,19.64,14.76,36.19,34.38,36.91,9.57.32,18.63-3.04,25.6-9.58,6.94-6.46,10.93-15.3,11.3-24.82.67-19.62-14.76-36.2-34.41-36.91h0Zm-.3,10.5c13.73.49,24.48,12.02,24.01,25.74-.21,6.62-3,12.75-7.85,17.3-4.86,4.53-11.21,6.88-17.87,6.68-13.7-.51-24.44-12.05-23.98-25.78.2-6.64,3.05-12.78,7.88-17.31,4.83-4.53,11.15-6.88,17.81-6.64Zm4.07,12.48c-6.1,0-11.03,3.28-11.03,7.37s4.93,7.35,11.03,7.35,11.04-3.3,11.04-7.35-4.94-7.37-11.04-7.37Z"/>
    </clipPath>
    <clipPath id="clippath-1">
      <rect class="cls-1" y="-.47" width="256" height="256" rx="51.04" ry="51.04"/>
    </clipPath>
  </defs>
  <g class="cls-2">
    <rect class="cls-3" x="232.93" y="249.13" width="318.92" height="60.57"/>
  </g>
  <g class="cls-9">
    <rect class="cls-4" x="-8.42" y="204.05" width="268.61" height="51.95"/>
    <rect class="cls-8" x="-8.42" y="153.04" width="268.61" height="51.01"/>
    <rect class="cls-7" x="-8.42" y="102.03" width="268.61" height="51.01"/>
    <rect class="cls-6" x="-8.42" y="51.02" width="268.61" height="51.01"/>
    <rect class="cls-3" x="-8.42" y="0" width="268.61" height="51.02"/>
    <path id="path2-2" data-name="path2" class="cls-5" d="m121.85,25.03c-31.54.05-61.31,14.61-80.7,39.49,12.5,3.34,21.35,6.21,24,7.1.04-1.63.31-16.17.31-16.17,0,0,.03-.33.21-.51.23-.22.56-.16.56-.16,3.29.48,73.48,10.88,103.07,28.12,3.65,2.14,5.46,4.41,7.71,6.71,8.18,8.46,18.98,43.63,20.15,50.88.05.28-.31.59-.46.71h0c-.84.66-1.76,1.34-2.67,1.95-7,4.7-23.13,15.99-43.82,14.14-18.59-1.64-42.87-12.31-72.14-31.59,2.88,6.74,5.71,13.5,8.55,20.26,4.24,2.2,45.16,23.05,65.35,22.65,16.27-.34,33.66-8.27,40.62-12.46,0,0,1.53-.92,2.19-.41.73.56.53,1.42.35,2.3-.43,2-1.4,5.64-2.07,7.37l-.56,1.41c-.8,2.13-1.56,4.12-3.04,5.34-4.1,3.73-10.64,6.69-20.9,11.15-15.85,6.93-41.56,11.34-65.44,11.19-8.55-.19-16.81-1.14-24.07-1.99-14.89-1.68-27-3.04-34.39,2.3,19.43,22.33,47.56,35.16,77.16,35.21,56.61,0,102.51-45.89,102.51-102.51h0c0-56.61-45.89-102.51-102.51-102.51h0,0Zm22.86,59.48c-8.02-.26-15.67,2.58-21.54,8.05-5.86,5.46-9.22,12.9-9.51,20.92-.55,16.54,12.43,30.48,28.96,31.09,8.06.27,15.69-2.56,21.56-8.07,5.85-5.44,9.2-12.88,9.51-20.9.57-16.53-12.43-30.49-28.98-31.08h0Zm-.25,8.85c11.56.41,20.61,10.12,20.23,21.68-.18,5.57-2.53,10.74-6.61,14.57-4.09,3.81-9.44,5.8-15.05,5.63-11.54-.43-20.59-10.15-20.2-21.71.17-5.6,2.57-10.76,6.63-14.58,4.07-3.81,9.39-5.8,15-5.59Zm3.43,10.51c-5.14,0-9.29,2.76-9.29,6.2s4.15,6.19,9.29,6.19,9.3-2.78,9.3-6.19-4.16-6.2-9.3-6.2Z"/>
  </g>
</svg>