<?xml version="1.0" encoding="UTF-8"?>
<svg id="svg4" xmlns="http://www.w3.org/2000/svg" xmlns:xlink="http://www.w3.org/1999/xlink" viewBox="0 0 256 256">
  <defs>
    <style>
      .cls-1 {
        fill: none;
      }

      .cls-2 {
        clip-path: url(#clippath);
      }

      .cls-3 {
        fill: #03b042;
      }

      .cls-4 {
        fill: #02a1e2;
      }

      .cls-5 {
        fill: #fff;
      }

      .cls-6 {
        fill: #ffd833;
      }

      .cls-7 {
        fill: #feb300;
      }

      .cls-8 {
        fill: #d8291c;
      }

      .cls-9 {
        clip-path: url(#clippath-1);
      }

      .cls-10 {
        clip-path: url(#clippath-4);
      }

      .cls-11 {
        clip-path: url(#clippath-3);
      }

      .cls-12 {
        clip-path: url(#clippath-2);
      }

      .cls-13 {
        clip-path: url(#clippath-5);
      }
    </style>
    <clipPath id="clippath">
      <rect class="cls-1" x="0" y="0" width="256" height="256" rx="48.39" ry="48.39"/>
    </clipPath>
    <clipPath id="clippath-1">
      <path class="cls-1" d="m398.5,5.8c-37.5,0-72.8,17.3-95.9,46.9,14.8,4,25.4,7.4,28.5,8.4,0-1.9.4-19.2.4-19.2,0,0,0-.4.3-.6.3-.3.7-.2.7-.2,3.9.6,87.2,12.9,122.4,33.4,4.3,2.5,6.5,5.2,9.2,8,9.7,10,22.5,51.8,23.9,60.4.1.3-.4.7-.5.8h0c-1,.8-2.1,1.6-3.2,2.3-8.3,5.6-27.5,19-52,16.8-22.1-2-50.9-14.6-85.7-37.5,3.4,8,6.8,16,10.2,24,5,2.6,53.6,27.4,77.6,26.9,19.3-.4,40-9.8,48.2-14.8,0,0,1.8-1.1,2.6-.5.9.7.6,1.7.4,2.7-.5,2.4-1.7,6.7-2.5,8.8l-.7,1.7c-.9,2.5-1.9,4.9-3.6,6.3-4.9,4.4-12.6,7.9-24.8,13.2-18.8,8.2-49.3,13.5-77.7,13.3-10.2-.2-20-1.4-28.6-2.4-17.7-2-32.1-3.6-40.8,2.7,23.1,26.5,56.5,41.8,91.6,41.8,67.2,0,121.7-54.5,121.7-121.7h0c0-67-54.5-121.5-121.7-121.5h0Zm27.1,70.6c-9.5-.3-18.6,3.1-25.6,9.6s-10.9,15.3-11.3,24.8c-.7,19.6,14.8,36.2,34.4,36.9,9.6.3,18.6-3,25.6-9.6,6.9-6.5,10.9-15.3,11.3-24.8.7-19.6-14.8-36.2-34.4-36.9h0Zm-.3,10.5c13.7.5,24.5,12,24,25.7-.2,6.6-3,12.8-7.9,17.3s-11.2,6.9-17.9,6.7c-13.7-.5-24.4-12.1-24-25.8.2-6.6,3-12.8,7.9-17.3s11.2-6.8,17.9-6.6Zm4.1,12.5c-6.1,0-11,3.3-11,7.4s4.9,7.3,11,7.3,11-3.3,11-7.3-4.9-7.4-11-7.4Z"/>
    </clipPath>
    <clipPath id="clippath-2">
      <path class="cls-1" d="m398.5,5.8c-37.5,0-72.8,17.3-95.9,46.9,14.8,4,25.4,7.4,28.5,8.4,0-1.9.4-19.2.4-19.2,0,0,0-.4.3-.6.3-.3.7-.2.7-.2,3.9.6,87.2,12.9,122.4,33.4,4.3,2.5,6.5,5.2,9.2,8,9.7,10,22.5,51.8,23.9,60.4.1.3-.4.7-.5.8h0c-1,.8-2.1,1.6-3.2,2.3-8.3,5.6-27.5,19-52,16.8-22.1-2-50.9-14.6-85.7-37.5,3.4,8,6.8,16,10.2,24,5,2.6,53.6,27.4,77.6,26.9,19.3-.4,40-9.8,48.2-14.8,0,0,1.8-1.1,2.6-.5.9.7.6,1.7.4,2.7-.5,2.4-1.7,6.7-2.5,8.8l-.7,1.7c-.9,2.5-1.9,4.9-3.6,6.3-4.9,4.4-12.6,7.9-24.8,13.2-18.8,8.2-49.3,13.5-77.7,13.3-10.2-.2-20-1.4-28.6-2.4-17.7-2-32.1-3.6-40.8,2.7,23.1,26.5,56.5,41.8,91.6,41.8,67.2,0,121.7-54.5,121.7-121.7h0c0-67-54.5-121.5-121.7-121.5h0Zm27.1,70.6c-9.5-.3-18.6,3.1-25.6,9.6s-10.9,15.3-11.3,24.8c-.7,19.6,14.8,36.2,34.4,36.9,9.6.3,18.6-3,25.6-9.6,6.9-6.5,10.9-15.3,11.3-24.8.7-19.6-14.8-36.2-34.4-36.9h0Zm-.3,10.5c13.7.5,24.5,12,24,25.7-.2,6.6-3,12.8-7.9,17.3s-11.2,6.9-17.9,6.7c-13.7-.5-24.4-12.1-24-25.8.2-6.6,3-12.8,7.9-17.3s11.2-6.8,17.9-6.6Zm4.1,12.5c-6.1,0-11,3.3-11,7.4s4.9,7.3,11,7.3,11-3.3,11-7.3-4.9-7.4-11-7.4Z"/>
    </clipPath>
    <clipPath id="clippath-3">
      <path class="cls-1" d="m398.5,5.8c-37.5,0-72.8,17.3-95.9,46.9,14.8,4,25.4,7.4,28.5,8.4,0-1.9.4-19.2.4-19.2,0,0,0-.4.3-.6.3-.3.7-.2.7-.2,3.9.6,87.2,12.9,122.4,33.4,4.3,2.5,6.5,5.2,9.2,8,9.7,10,22.5,51.8,23.9,60.4.1.3-.4.7-.5.8h0c-1,.8-2.1,1.6-3.2,2.3-8.3,5.6-27.5,19-52,16.8-22.1-2-50.9-14.6-85.7-37.5,3.4,8,6.8,16,10.2,24,5,2.6,53.6,27.4,77.6,26.9,19.3-.4,40-9.8,48.2-14.8,0,0,1.8-1.1,2.6-.5.9.7.6,1.7.4,2.7-.5,2.4-1.7,6.7-2.5,8.8l-.7,1.7c-.9,2.5-1.9,4.9-3.6,6.3-4.9,4.4-12.6,7.9-24.8,13.2-18.8,8.2-49.3,13.5-77.7,13.3-10.2-.2-20-1.4-28.6-2.4-17.7-2-32.1-3.6-40.8,2.7,23.1,26.5,56.5,41.8,91.6,41.8,67.2,0,121.7-54.5,121.7-121.7h0c0-67-54.5-121.5-121.7-121.5h0Zm27.1,70.6c-9.5-.3-18.6,3.1-25.6,9.6s-10.9,15.3-11.3,24.8c-.7,19.6,14.8,36.2,34.4,36.9,9.6.3,18.6-3,25.6-9.6,6.9-6.5,10.9-15.3,11.3-24.8.7-19.6-14.8-36.2-34.4-36.9h0Zm-.3,10.5c13.7.5,24.5,12,24,25.7-.2,6.6-3,12.8-7.9,17.3s-11.2,6.9-17.9,6.7c-13.7-.5-24.4-12.1-24-25.8.2-6.6,3-12.8,7.9-17.3s11.2-6.8,17.9-6.6Zm4.1,12.5c-6.1,0-11,3.3-11,7.4s4.9,7.3,11,7.3,11-3.3,11-7.3-4.9-7.4-11-7.4Z"/>
    </clipPath>
    <clipPath id="clippath-4">
      <path class="cls-1" d="m398.5,5.8c-37.5,0-72.8,17.3-95.9,46.9,14.8,4,25.4,7.4,28.5,8.4,0-1.9.4-19.2.4-19.2,0,0,0-.4.3-.6.3-.3.7-.2.7-.2,3.9.6,87.2,12.9,122.4,33.4,4.3,2.5,6.5,5.2,9.2,8,9.7,10,22.5,51.8,23.9,60.4.1.3-.4.7-.5.8h0c-1,.8-2.1,1.6-3.2,2.3-8.3,5.6-27.5,19-52,16.8-22.1-2-50.9-14.6-85.7-37.5,3.4,8,6.8,16,10.2,24,5,2.6,53.6,27.4,77.6,26.9,19.3-.4,40-9.8,48.2-14.8,0,0,1.8-1.1,2.6-.5.9.7.6,1.7.4,2.7-.5,2.4-1.7,6.7-2.5,8.8l-.7,1.7c-.9,2.5-1.9,4.9-3.6,6.3-4.9,4.4-12.6,7.9-24.8,13.2-18.8,8.2-49.3,13.5-77.7,13.3-10.2-.2-20-1.4-28.6-2.4-17.7-2-32.1-3.6-40.8,2.7,23.1,26.5,56.5,41.8,91.6,41.8,67.2,0,121.7-54.5,121.7-121.7h0c0-67-54.5-121.5-121.7-121.5h0Zm27.1,70.6c-9.5-.3-18.6,3.1-25.6,9.6s-10.9,15.3-11.3,24.8c-.7,19.6,14.8,36.2,34.4,36.9,9.6.3,18.6-3,25.6-9.6,6.9-6.5,10.9-15.3,11.3-24.8.7-19.6-14.8-36.2-34.4-36.9h0Zm-.3,10.5c13.7.5,24.5,12,24,25.7-.2,6.6-3,12.8-7.9,17.3s-11.2,6.9-17.9,6.7c-13.7-.5-24.4-12.1-24-25.8.2-6.6,3-12.8,7.9-17.3s11.2-6.8,17.9-6.6Zm4.1,12.5c-6.1,0-11,3.3-11,7.4s4.9,7.3,11,7.3,11-3.3,11-7.3-4.9-7.4-11-7.4Z"/>
    </clipPath>
    <clipPath id="clippath-5">
      <path class="cls-1" d="m398.5,5.8c-37.5,0-72.8,17.3-95.9,46.9,14.8,4,25.4,7.4,28.5,8.4,0-1.9.4-19.2.4-19.2,0,0,0-.4.3-.6.3-.3.7-.2.7-.2,3.9.6,87.2,12.9,122.4,33.4,4.3,2.5,6.5,5.2,9.2,8,9.7,10,22.5,51.8,23.9,60.4.1.3-.4.7-.5.8h0c-1,.8-2.1,1.6-3.2,2.3-8.3,5.6-27.5,19-52,16.8-22.1-2-50.9-14.6-85.7-37.5,3.4,8,6.8,16,10.2,24,5,2.6,53.6,27.4,77.6,26.9,19.3-.4,40-9.8,48.2-14.8,0,0,1.8-1.1,2.6-.5.9.7.6,1.7.4,2.7-.5,2.4-1.7,6.7-2.5,8.8l-.7,1.7c-.9,2.5-1.9,4.9-3.6,6.3-4.9,4.4-12.6,7.9-24.8,13.2-18.8,8.2-49.3,13.5-77.7,13.3-10.2-.2-20-1.4-28.6-2.4-17.7-2-32.1-3.6-40.8,2.7,23.1,26.5,56.5,41.8,91.6,41.8,67.2,0,121.7-54.5,121.7-121.7h0c0-67-54.5-121.5-121.7-121.5h0Zm27.1,70.6c-9.5-.3-18.6,3.1-25.6,9.6s-10.9,15.3-11.3,24.8c-.7,19.6,14.8,36.2,34.4,36.9,9.6.3,18.6-3,25.6-9.6,6.9-6.5,10.9-15.3,11.3-24.8.7-19.6-14.8-36.2-34.4-36.9h0Zm-.3,10.5c13.7.5,24.5,12,24,25.7-.2,6.6-3,12.8-7.9,17.3s-11.2,6.9-17.9,6.7c-13.7-.5-24.4-12.1-24-25.8.2-6.6,3-12.8,7.9-17.3s11.2-6.8,17.9-6.6Zm4.1,12.5c-6.1,0-11,3.3-11,7.4s4.9,7.3,11,7.3,11-3.3,11-7.3-4.9-7.4-11-7.4Z"/>
    </clipPath>
  </defs>
  <g class="cls-2">
    <g>
      <rect class="cls-4" x="-8.45" y="203.98" width="268.6" height="52.02"/>
      <rect class="cls-8" x="-8.45" y="152.96" width="268.6" height="51.02"/>
      <rect class="cls-7" x="-8.45" y="101.93" width="268.6" height="51.02"/>
      <rect class="cls-6" x="-8.45" y="50.91" width="268.6" height="51.02"/>
      <rect class="cls-3" x="-8.4" width="268.6" height="51.02"/>
    </g>
  </g>
  <g>
    <g class="cls-9">
      <rect class="cls-4" x="243.8" y="218.3" width="318.9" height="61.7"/>
    </g>
    <g class="cls-12">
      <rect class="cls-8" x="243.8" y="157.8" width="318.9" height="60.6"/>
    </g>
    <g class="cls-11">
      <rect class="cls-7" x="243.8" y="97.2" width="318.9" height="60.6"/>
    </g>
    <g class="cls-10">
      <rect class="cls-6" x="243.8" y="36.7" width="318.9" height="60.6"/>
    </g>
    <g class="cls-13">
      <rect class="cls-3" x="243.8" y="-23.9" width="318.9" height="60.6"/>
    </g>
  </g>
  <path id="path2" class="cls-5" d="m125.73,25c-31.5,0-61.3,14.6-80.7,39.5,12.5,3.3,21.4,6.2,24,7.1,0-1.6.3-16.2.3-16.2,0,0,0-.3.2-.5s.6-.2.6-.2c3.3.5,73.5,10.9,103.1,28.1,3.7,2.1,5.5,4.4,7.7,6.7,8.2,8.5,19,43.6,20.1,50.9,0,.3-.3.6-.5.7h0c-.8.7-1.8,1.3-2.7,1.9-7,4.7-23.1,16-43.8,14.1-18.6-1.6-42.9-12.3-72.1-31.6,2.9,6.7,5.7,13.5,8.6,20.3,4.2,2.2,45.2,23.1,65.4,22.6,16.3-.3,33.7-8.3,40.6-12.5,0,0,1.5-.9,2.2-.4.7.6.5,1.4.4,2.3-.4,2-1.4,5.6-2.1,7.4l-.6,1.4c-.8,2.1-1.6,4.1-3,5.3-4.1,3.7-10.6,6.7-20.9,11.2-15.8,6.9-41.6,11.3-65.4,11.2-8.6-.2-16.8-1.1-24.1-2-14.9-1.7-27-3-34.4,2.3,19.4,22.3,47.6,35.2,77.2,35.2,56.6,0,102.5-45.9,102.5-102.5h0c-.1-56.4-46-102.3-102.6-102.3h0Zm22.9,59.5c-8-.3-15.7,2.6-21.5,8.1-5.9,5.5-9.2,12.9-9.5,20.9-.6,16.5,12.4,30.5,29,31.1,8.1.3,15.7-2.6,21.6-8.1,5.8-5.4,9.2-12.9,9.5-20.9.4-16.6-12.6-30.6-29.1-31.1h0Zm-.3,8.8c11.6.4,20.6,10.1,20.2,21.7-.2,5.6-2.5,10.7-6.6,14.6-4.1,3.8-9.4,5.8-15,5.6-11.5-.4-20.6-10.1-20.2-21.7.2-5.6,2.6-10.8,6.6-14.6,4.1-3.8,9.4-5.8,15-5.6Zm3.4,10.5c-5.1,0-9.3,2.8-9.3,6.2s4.1,6.2,9.3,6.2,9.3-2.8,9.3-6.2c0-3.4-4.1-6.2-9.3-6.2Z"/>
</svg>